<svg xmlns="http://www.w3.org/2000/svg" viewBox="0 0 13 14"><title>zot-dollar</title><path d="M.38,6.54A1,1,0,0,1,.4,7.6l-.2.3A.94.94,0,0,0,.5,9.22l.29.17a.9.9,0,0,1,.44.95l-.06.36A.9.9,0,0,0,2,11.76l.34,0a.87.87,0,0,1,.79.65l.09.35a.85.85,0,0,0,1.17.58l.31-.15a.87.87,0,0,1,1,.22l.22.27a.85.85,0,0,0,1.3,0l.22-.27a.83.83,0,0,1,1-.24l.31.13a.84.84,0,0,0,1.15-.59l.09-.35a.89.89,0,0,1,.79-.67h.33a.92.92,0,0,0,.81-1.08l-.06-.36a.94.94,0,0,1,.44-1l.29-.18a1,1,0,0,0,.28-1.34l-.19-.28a1,1,0,0,1,0-1.06l.2-.3a1,1,0,0,0-.3-1.33l-.29-.16a.91.91,0,0,1-.44-1l.06-.36A.91.91,0,0,0,11,2.25H10.7a.87.87,0,0,1-.79-.66l-.09-.34A.84.84,0,0,0,8.65.66L8.34.81a.85.85,0,0,1-1-.23L7.1.3a.85.85,0,0,0-1.3,0L5.58.58a.83.83,0,0,1-1,.24L4.28.69a.84.84,0,0,0-1.15.59l-.08.36a.88.88,0,0,1-.79.67l-.34,0a.9.9,0,0,0-.8,1.07l0,.36a.94.94,0,0,1-.43,1l-.3.18A1,1,0,0,0,.16,6.25Zm4.19,2.8c0-.19.09-.39.15-.58s.13-.25.31-.15a2.75,2.75,0,0,0,1,.33,1.35,1.35,0,0,0,.69-.09.58.58,0,0,0,.13-1,1.4,1.4,0,0,0-.38-.22,11.6,11.6,0,0,1-1.07-.51,1.61,1.61,0,0,1-.86-1.54A1.66,1.66,0,0,1,5.75,4C6,3.91,6,3.91,6,3.6V3.27C6,3,6.09,3,6.31,3h.21C7,3,7,3,7,3.49s0,.36.34.42a2.79,2.79,0,0,1,.74.24.23.23,0,0,1,.15.3c-.06.22-.12.43-.19.66s-.12.23-.31.13A2.27,2.27,0,0,0,6.55,5a.57.57,0,0,0-.31.07.49.49,0,0,0-.11.84,1.61,1.61,0,0,0,.51.29,8.68,8.68,0,0,1,.92.45,1.83,1.83,0,0,1,.54,2.7,1.7,1.7,0,0,1-.93.63.27.27,0,0,0-.23.31,4.69,4.69,0,0,1,0,.53.2.2,0,0,1-.22.23H6.18C6,11,6,11,6,10.79V10.4c0-.28,0-.3-.27-.33a3.4,3.4,0,0,1-.94-.28C4.52,9.67,4.5,9.61,4.57,9.34Z"/></svg>