<svg xmlns="http://www.w3.org/2000/svg" viewBox="0 0 20 13"><title>zot-card</title><path d="M6.07,10.41a1.08,1.08,0,0,0,0-2.16,1,1,0,0,0-.72.29,2,2,0,0,1,0,1.58A1,1,0,0,0,6.07,10.41Zm-2.52,0a1,1,0,0,0,.72-.29,2,2,0,0,1,0-1.58,1,1,0,0,0-.72-.29,1.08,1.08,0,0,0,0,2.16ZM17.27,8.26h-7V10.1h7ZM0,4.9H20V2.73H0Zm0,7.18A.91.91,0,0,0,.9,13H19.1a.91.91,0,0,0,.9-.92V5.82H0ZM9.41,7.8a.45.45,0,0,1,.45-.46h7.86a.45.45,0,0,1,.45.46v2.76a.45.45,0,0,1-.45.46H9.86a.45.45,0,0,1-.45-.46ZM3.55,7.33a1.94,1.94,0,0,1,1.26.47,1.94,1.94,0,0,1,1.26-.47,2,2,0,0,1,0,4,1.94,1.94,0,0,1-1.26-.47,1.94,1.94,0,0,1-1.26.47,2,2,0,0,1,0-4ZM19.1,0H.9A.91.91,0,0,0,0,.92v.89H20V.92h0A.91.91,0,0,0,19.1,0Z"/></svg>