<svg xmlns="http://www.w3.org/2000/svg" viewBox="0 0 18 16"><title>zot-products</title><path d="M17.5,9a.48.48,0,0,1,.5.5v6a.48.48,0,0,1-.5.5h-7a.48.48,0,0,1-.5-.5v-6a.48.48,0,0,1,.5-.5H13v3l1-.66L15,12V9ZM5.5,7A.48.48,0,0,1,5,6.5V.5A.49.49,0,0,1,5.14.14.49.49,0,0,1,5.5,0H8V3l1-.66L10,3V0h2.5a.49.49,0,0,1,.36.14A.49.49,0,0,1,13,.5v6a.48.48,0,0,1-.5.5Zm2,2a.48.48,0,0,1,.5.5v6a.48.48,0,0,1-.5.5H.5a.49.49,0,0,1-.36-.14A.49.49,0,0,1,0,15.5v-6a.49.49,0,0,1,.14-.36A.49.49,0,0,1,.5,9H3v3l1-.66L5,12V9Z"/></svg>