<svg xmlns="http://www.w3.org/2000/svg" viewBox="0 0 10.5 14"><title>zot-map</title><path d="M4.7,13.73a.63.63,0,0,0,.55.27.63.63,0,0,0,.55-.27L7.63,11.1c.91-1.31,1.51-2.2,1.8-2.65a7.46,7.46,0,0,0,.85-1.66,4.81,4.81,0,0,0,.22-1.54,5.14,5.14,0,0,0-.71-2.63A5.3,5.3,0,0,0,7.88.71a5.23,5.23,0,0,0-5.26,0A5.3,5.3,0,0,0,.71,2.62,5.14,5.14,0,0,0,0,5.25,4.81,4.81,0,0,0,.22,6.79a7.46,7.46,0,0,0,.85,1.66c.29.45.89,1.34,1.8,2.65C3.62,12.16,4.23,13,4.7,13.73Zm.55-6.29a2.09,2.09,0,0,1-1.54-.65,2.09,2.09,0,0,1-.65-1.54,2.09,2.09,0,0,1,.65-1.54,2.09,2.09,0,0,1,1.54-.65,2.12,2.12,0,0,1,1.55.65,2.17,2.17,0,0,1,0,3.08A2.12,2.12,0,0,1,5.25,7.44Z"/></svg>