<svg xmlns="http://www.w3.org/2000/svg" viewBox="0 0 15 15"><title>zot-search</title><path d="M14.79,13a.67.67,0,0,1,.21.5.65.65,0,0,1-.21.49l-.82.82a.65.65,0,0,1-.49.21.67.67,0,0,1-.5-.21l-2.93-2.92a.69.69,0,0,1-.21-.5V10.9a5.89,5.89,0,0,1-3.75,1.29A6,6,0,0,1,3,11.37,6.24,6.24,0,0,1,.82,9.16,5.91,5.91,0,0,1,0,6.09,5.9,5.9,0,0,1,.82,3,6.16,6.16,0,0,1,3,.82,5.9,5.9,0,0,1,6.09,0,5.91,5.91,0,0,1,9.16.82,6.24,6.24,0,0,1,11.37,3a6,6,0,0,1,.82,3.06A5.89,5.89,0,0,1,10.9,9.84h.47a.69.69,0,0,1,.5.21ZM6.09,9.84A3.7,3.7,0,0,0,8,9.35,3.75,3.75,0,0,0,9.35,8a3.7,3.7,0,0,0,.49-1.89A3.67,3.67,0,0,0,8,2.84a3.71,3.71,0,0,0-1.89-.5,3.76,3.76,0,0,0-1.89.5A3.7,3.7,0,0,0,2.84,4.2a3.76,3.76,0,0,0-.5,1.89A3.76,3.76,0,0,0,4.2,9.35,3.75,3.75,0,0,0,6.09,9.84Z"/></svg>