<svg xmlns="http://www.w3.org/2000/svg" viewBox="0 0 18 12"><title>zot-truck</title><path d="M18,5.77a.43.43,0,0,0-.08-.24L15.15,1.62a.52.52,0,0,0-.41-.21H11a.48.48,0,0,0-.49.47V9.42a.47.47,0,0,0,.49.46h1a2.25,2.25,0,0,0,4.5,0h1A.47.47,0,0,0,18,9.42V5.77Zm-5.25-.12V2.82h1.9l2,2.83Zm1.5,5.29a1.06,1.06,0,1,1,1.12-1.06A1.1,1.1,0,0,1,14.25,10.94ZM9.1,0H.65A.63.63,0,0,0,0,.61V9.27a.63.63,0,0,0,.65.61h1.6A2.19,2.19,0,0,0,4.5,12,2.19,2.19,0,0,0,6.75,9.88H9.1a.63.63,0,0,0,.65-.61V.61A.63.63,0,0,0,9.1,0ZM4.5,10.94a1.06,1.06,0,1,1,0-2.12,1.06,1.06,0,1,1,0,2.12Z"/></svg>