<svg class="svg-sprites" id="skin-sprite" xmlns="http://www.w3.org/2000/svg" xmlns:xlink="http://www.w3.org/1999/xlink"><symbol viewBox="0 0 20 13" id="zot-card" xmlns="http://www.w3.org/2000/svg"><path d="M6.07 10.41a1.08 1.08 0 000-2.16 1 1 0 00-.72.29 2 2 0 010 1.58 1 1 0 00.72.29zm-2.52 0a1 1 0 00.72-.29 2 2 0 010-1.58 1 1 0 00-.72-.29 1.08 1.08 0 000 2.16zm13.72-2.15h-7v1.84h7zM0 4.9h20V2.73H0zm0 7.18a.91.91 0 00.9.92h18.2a.91.91 0 00.9-.92V5.82H0zM9.41 7.8a.45.45 0 01.45-.46h7.86a.45.45 0 01.45.46v2.76a.45.45 0 01-.45.46H9.86a.45.45 0 01-.45-.46zm-5.86-.47a1.94 1.94 0 011.26.47 1.94 1.94 0 011.26-.47 2 2 0 010 4 1.94 1.94 0 01-1.26-.47 1.94 1.94 0 01-1.26.47 2 2 0 010-4zM19.1 0H.9a.91.91 0 00-.9.92v.89h20V.92a.91.91 0 00-.9-.92z"/></symbol><symbol viewBox="0 0 24.01 25" id="zot-cart" xmlns="http://www.w3.org/2000/svg"><path d="M24 24.36L20.77 5.08a.56.56 0 00-.55-.46h-4V4.2A4.2 4.2 0 007.81 4a1 1 0 000 .24v.42h-4a.55.55 0 00-.55.46L0 24.36a.56.56 0 00.11.45.57.57 0 00.44.19h22.9a.5.5 0 00.43-.19.53.53 0 00.12-.45zM8.92 4.2a3.09 3.09 0 016.17-.2v.63H8.92zm-7.7 19.7l3-18.2h3.59v2a.54.54 0 00.55.54.55.55 0 00.56-.54v-2h6.17v2a.56.56 0 001.11 0v-2h3.55l3 18.2z"/></symbol><symbol viewBox="0 0 13 14" id="zot-dollar" xmlns="http://www.w3.org/2000/svg"><path d="M.38 6.54A1 1 0 01.4 7.6l-.2.3a.94.94 0 00.3 1.32l.29.17a.9.9 0 01.44.95l-.06.36A.9.9 0 002 11.76h.34a.87.87 0 01.79.65l.09.35a.85.85 0 001.17.58l.31-.15a.87.87 0 011 .22l.22.27a.85.85 0 001.3 0l.22-.27a.83.83 0 011-.24l.31.13a.84.84 0 001.15-.59l.09-.35a.89.89 0 01.79-.67h.33a.92.92 0 00.81-1.08l-.06-.36a.94.94 0 01.44-1l.29-.18a1 1 0 00.28-1.34l-.19-.28a1 1 0 010-1.06l.2-.3a1 1 0 00-.3-1.33l-.29-.16a.91.91 0 01-.44-1l.06-.36a.91.91 0 00-.91-.99h-.3a.87.87 0 01-.79-.66l-.09-.34A.84.84 0 008.65.66l-.31.15a.85.85 0 01-1-.23L7.1.3a.85.85 0 00-1.3 0l-.22.28a.83.83 0 01-1 .24l-.3-.13a.84.84 0 00-1.15.59l-.08.36a.88.88 0 01-.79.67h-.34a.9.9 0 00-.8 1.07v.36a.94.94 0 01-.43 1l-.3.18a1 1 0 00-.23 1.33zm4.19 2.8c0-.19.09-.39.15-.58s.13-.25.31-.15a2.75 2.75 0 001 .33 1.35 1.35 0 00.69-.09.58.58 0 00.13-1 1.4 1.4 0 00-.38-.22 11.6 11.6 0 01-1.07-.51 1.61 1.61 0 01-.86-1.54A1.66 1.66 0 015.75 4C6 3.91 6 3.91 6 3.6v-.33C6 3 6.09 3 6.31 3h.21C7 3 7 3 7 3.49s0 .36.34.42a2.79 2.79 0 01.74.24.23.23 0 01.15.3c-.06.22-.12.43-.19.66s-.12.23-.31.13A2.27 2.27 0 006.55 5a.57.57 0 00-.31.07.49.49 0 00-.11.84 1.61 1.61 0 00.51.29 8.68 8.68 0 01.92.45 1.83 1.83 0 01.54 2.7 1.7 1.7 0 01-.93.63.27.27 0 00-.23.31 4.69 4.69 0 010 .53.2.2 0 01-.22.23h-.54C6 11 6 11 6 10.79v-.39c0-.28 0-.3-.27-.33a3.4 3.4 0 01-.94-.28c-.27-.12-.29-.18-.22-.45z"/></symbol><symbol viewBox="0 0 10.5 14" id="zot-map" xmlns="http://www.w3.org/2000/svg"><path d="M4.7 13.73a.63.63 0 00.55.27.63.63 0 00.55-.27l1.83-2.63c.91-1.31 1.51-2.2 1.8-2.65a7.46 7.46 0 00.85-1.66 4.81 4.81 0 00.22-1.54 5.14 5.14 0 00-.71-2.63A5.3 5.3 0 007.88.71a5.23 5.23 0 00-5.26 0A5.3 5.3 0 00.71 2.62 5.14 5.14 0 000 5.25a4.81 4.81 0 00.22 1.54 7.46 7.46 0 00.85 1.66c.29.45.89 1.34 1.8 2.65.75 1.06 1.36 1.9 1.83 2.63zm.55-6.29a2.09 2.09 0 01-1.54-.65 2.09 2.09 0 01-.65-1.54 2.09 2.09 0 01.65-1.54 2.09 2.09 0 011.54-.65 2.12 2.12 0 011.55.65 2.17 2.17 0 010 3.08 2.12 2.12 0 01-1.55.65z"/></symbol><symbol viewBox="0 0 18 16" id="zot-products" xmlns="http://www.w3.org/2000/svg"><path d="M17.5 9a.48.48 0 01.5.5v6a.48.48 0 01-.5.5h-7a.48.48 0 01-.5-.5v-6a.48.48 0 01.5-.5H13v3l1-.66 1 .66V9zm-12-2a.48.48 0 01-.5-.5v-6a.49.49 0 01.14-.36A.49.49 0 015.5 0H8v3l1-.66L10 3V0h2.5a.49.49 0 01.36.14.49.49 0 01.14.36v6a.48.48 0 01-.5.5zm2 2a.48.48 0 01.5.5v6a.48.48 0 01-.5.5h-7a.49.49 0 01-.36-.14.49.49 0 01-.14-.36v-6a.49.49 0 01.14-.36A.49.49 0 01.5 9H3v3l1-.66L5 12V9z"/></symbol><symbol viewBox="0 0 15 15" id="zot-search" xmlns="http://www.w3.org/2000/svg"><path d="M14.79 13a.67.67 0 01.21.5.65.65 0 01-.21.49l-.82.82a.65.65 0 01-.49.21.67.67 0 01-.5-.21l-2.93-2.92a.69.69 0 01-.21-.5v-.49a5.89 5.89 0 01-3.75 1.29A6 6 0 013 11.37 6.24 6.24 0 01.82 9.16 5.91 5.91 0 010 6.09 5.9 5.9 0 01.82 3 6.16 6.16 0 013 .82 5.9 5.9 0 016.09 0a5.91 5.91 0 013.07.82A6.24 6.24 0 0111.37 3a6 6 0 01.82 3.06 5.89 5.89 0 01-1.29 3.78h.47a.69.69 0 01.5.21zm-8.7-3.16A3.7 3.7 0 008 9.35 3.75 3.75 0 009.35 8a3.7 3.7 0 00.49-1.89A3.67 3.67 0 008 2.84a3.71 3.71 0 00-1.89-.5 3.76 3.76 0 00-1.89.5A3.7 3.7 0 002.84 4.2a3.76 3.76 0 00-.5 1.89A3.76 3.76 0 004.2 9.35a3.75 3.75 0 001.89.49z"/></symbol><symbol viewBox="0 0 18 12" id="zot-truck" xmlns="http://www.w3.org/2000/svg"><path d="M18 5.77a.43.43 0 00-.08-.24l-2.77-3.91a.52.52 0 00-.41-.21H11a.48.48 0 00-.49.47v7.54a.47.47 0 00.49.46h1a2.25 2.25 0 004.5 0h1a.47.47 0 00.5-.46V5.77zm-5.25-.12V2.82h1.9l2 2.83zm1.5 5.29a1.06 1.06 0 111.12-1.06 1.1 1.1 0 01-1.12 1.06zM9.1 0H.65A.63.63 0 000 .61v8.66a.63.63 0 00.65.61h1.6A2.19 2.19 0 004.5 12a2.19 2.19 0 002.25-2.12H9.1a.63.63 0 00.65-.61V.61A.63.63 0 009.1 0zM4.5 10.94a1.06 1.06 0 110-2.12 1.06 1.06 0 110 2.12z"/></symbol></svg>